<svg width="100" height="100" viewBox="0 0 100 100" fill="none" xmlns="http://www.w3.org/2000/svg">
<g id="Group 2 Copy">
<rect id="Rectangle" width="100" height="100" rx="26" fill="url(#paint0_linear_26396_31662)"/>
<g id="Group 35">
<path id="Fill 1" fill-rule="evenodd" clip-rule="evenodd" d="M85.1931 49.999C85.1931 59.3927 81.5322 68.2246 74.8855 74.8677C68.2378 81.5099 59.4 85.1684 49.9999 85.1684C40.5999 85.1684 31.762 81.5099 25.1143 74.8677C18.4677 68.2246 14.8068 59.3927 14.8068 49.999C14.8068 40.6053 18.4677 31.7734 25.1143 25.1313C31.762 18.4881 40.5988 14.8297 49.9999 14.8297C59.401 14.8297 68.2378 18.4881 74.8855 25.1313C81.5322 31.7734 85.1931 40.6053 85.1931 49.999ZM82.9865 36.0738C81.1837 31.8135 78.602 27.9866 75.3151 24.702C72.0273 21.4163 68.1988 18.8373 63.9345 17.0348C59.5213 15.1696 54.8325 14.2227 49.9999 14.2227C45.1673 14.2227 40.4786 15.1696 36.0653 17.0348C31.8011 18.8373 27.9726 21.4163 24.6858 24.702C21.3979 27.9866 18.8161 31.8135 17.0124 36.0738C15.1459 40.4841 14.1993 45.1697 14.1993 49.999C14.1993 54.8283 15.1459 59.5139 17.0124 63.9252C18.8161 68.1856 21.3979 72.0114 24.6858 75.2971C27.9736 78.5827 31.8021 81.1617 36.0653 82.9642C40.4786 84.8294 45.1673 85.7754 49.9999 85.7754C54.8325 85.7754 59.5213 84.8294 63.9345 82.9642C68.1988 81.1617 72.0273 78.5817 75.3151 75.2971C78.602 72.0114 81.1837 68.1856 82.9865 63.9252C84.8539 59.5139 85.8005 54.8283 85.8005 49.999C85.8005 45.1697 84.8539 40.4851 82.9865 36.0738Z" fill="white"/>
<path id="Fill 3" fill-rule="evenodd" clip-rule="evenodd" d="M49.961 86.8327C49.1686 86.957 48.4245 86.4157 48.3001 85.6239C48.1748 84.831 48.7164 84.0884 49.5098 83.9631C50.3023 83.8388 51.0464 84.3801 51.1707 85.173C51.2961 85.9649 50.7534 86.7085 49.961 86.8327Z" fill="#0A9ECC"/>
<path id="Fill 5" fill-rule="evenodd" clip-rule="evenodd" d="M51.0394 85.4016C51.0394 85.3339 51.0343 85.265 51.023 85.1962C50.9695 84.8522 50.7845 84.5502 50.5029 84.3458C50.2213 84.1404 49.877 84.0572 49.5327 84.1116C49.1884 84.1661 48.8862 84.3499 48.6817 84.6313C48.4761 84.9128 48.3939 85.2579 48.4474 85.6009C48.5018 85.945 48.6858 86.2469 48.9674 86.4524C49.249 86.6567 49.5933 86.7399 49.9376 86.6855C50.2819 86.6321 50.5841 86.4472 50.7897 86.1658C50.9531 85.9409 51.0394 85.6748 51.0394 85.4016ZM48.1318 85.3955C48.1318 85.0596 48.2377 84.733 48.4402 84.4557C48.692 84.1106 49.063 83.8826 49.4864 83.8169C49.9089 83.7501 50.3333 83.8518 50.6787 84.1044C51.025 84.3561 51.2522 84.7279 51.319 85.15C51.3858 85.5721 51.283 85.9963 51.0312 86.3414C50.7794 86.6876 50.4073 86.9145 49.9839 86.9813C49.5615 87.047 49.138 86.9453 48.7917 86.6937C48.4453 86.4421 48.2182 86.0703 48.1524 85.6471C48.139 85.5629 48.1318 85.4787 48.1318 85.3955Z" fill="white"/>
<path id="Fill 7" fill-rule="evenodd" clip-rule="evenodd" d="M49.961 15.8874C49.1686 16.0117 48.4245 15.4704 48.3001 14.6785C48.1748 13.8856 48.7164 13.1431 49.5098 13.0178C50.3023 12.8935 51.0464 13.4348 51.1707 14.2266C51.2961 15.0195 50.7534 15.7631 49.961 15.8874Z" fill="white"/>
<path id="Fill 9" fill-rule="evenodd" clip-rule="evenodd" d="M13.7563 51.252C13.4634 51.0384 13.2722 50.7252 13.2157 50.3688C13.2054 50.2979 13.2013 50.228 13.2013 50.1582H15.9064V50.1613C15.9064 50.4458 15.817 50.721 15.6464 50.9552C15.4347 51.2469 15.1202 51.4379 14.7625 51.4955C14.4058 51.5509 14.0482 51.4657 13.7563 51.252Z" fill="#0A9ECC"/>
<g id="Group 13">
<mask id="mask0_26396_31662" style="mask-type:luminance" maskUnits="userSpaceOnUse" x="13" y="48" width="4" height="4">
<path id="Clip 12" fill-rule="evenodd" clip-rule="evenodd" d="M13 48.6055H16.1062V51.71H13V48.6055Z" fill="white"/>
</mask>
<g mask="url(#mask0_26396_31662)">
<path id="Fill 11" fill-rule="evenodd" clip-rule="evenodd" d="M13.7563 51.2511C13.4634 51.0375 13.2722 50.7242 13.2157 50.3678C13.2054 50.2969 13.2013 50.2271 13.2013 50.1572H15.9064V50.1603C15.9064 50.4448 15.817 50.7201 15.6464 50.9543C15.4347 51.2459 15.1202 51.437 14.7625 51.4945C14.4059 51.55 14.0482 51.4647 13.7563 51.2511ZM14.7934 51.6907C15.2045 51.627 15.5642 51.4062 15.8078 51.0703C16.0524 50.7365 16.151 50.3257 16.0873 49.9169C16.0226 49.5071 15.8026 49.1466 15.4676 48.9032C15.1315 48.6587 14.7224 48.5601 14.3113 48.6248C13.9023 48.6885 13.5425 48.9083 13.2979 49.2442C13.1027 49.5122 12.9999 49.8286 12.9999 50.1542C12.9999 50.2353 13.006 50.3164 13.0184 50.3986C13.0842 50.8084 13.3041 51.1689 13.6392 51.4123C13.9732 51.6568 14.3843 51.7554 14.7934 51.6907Z" fill="white"/>
</g>
</g>
<path id="Fill 14" fill-rule="evenodd" clip-rule="evenodd" d="M86.2436 49.0646C86.5365 49.2782 86.7277 49.5915 86.7842 49.9479C86.7945 50.0188 86.7986 50.0886 86.7986 50.1584H84.0935V50.1554C84.0935 49.8709 84.1829 49.5956 84.3535 49.3614C84.5653 49.0697 84.8798 48.8787 85.2374 48.8212C85.5941 48.7657 85.9517 48.851 86.2436 49.0646Z" fill="#0A9ECC"/>
<g id="Group 18">
<mask id="mask1_26396_31662" style="mask-type:luminance" maskUnits="userSpaceOnUse" x="83" y="48" width="4" height="4">
<path id="Clip 17" fill-rule="evenodd" clip-rule="evenodd" d="M83.8938 48.6055H87V51.71H83.8938V48.6055Z" fill="white"/>
</mask>
<g mask="url(#mask1_26396_31662)">
<path id="Fill 16" fill-rule="evenodd" clip-rule="evenodd" d="M86.2437 49.0644C86.5366 49.2781 86.7278 49.5913 86.7843 49.9477C86.7946 50.0186 86.7987 50.0884 86.7987 50.1583H84.0936V50.1552C84.0936 49.8707 84.183 49.5954 84.3536 49.3613C84.5653 49.0696 84.8798 48.8785 85.2375 48.821C85.5941 48.7655 85.9518 48.8508 86.2437 49.0644ZM85.2067 48.6248C84.7955 48.6885 84.4358 48.9093 84.1922 49.2452C83.9476 49.579 83.849 49.9898 83.9127 50.3986C83.9774 50.8084 84.1974 51.1689 84.5324 51.4123C84.8685 51.6568 85.2776 51.7554 85.6887 51.6907C86.0977 51.627 86.4575 51.4072 86.7021 51.0713C86.8973 50.8033 87.0001 50.4869 87.0001 50.1614C87.0001 50.0802 86.994 49.9991 86.9816 49.9169C86.9158 49.5071 86.6959 49.1466 86.3608 48.9032C86.0268 48.6587 85.6157 48.5601 85.2067 48.6248Z" fill="white"/>
</g>
</g>
<path id="Fill 19" fill-rule="evenodd" clip-rule="evenodd" d="M23.6092 75.5058C23.3687 75.0497 23.4057 74.4961 23.711 74.0781C23.9237 73.7854 24.2382 73.5944 24.5949 73.5379C24.9525 73.4824 25.3102 73.5687 25.6031 73.7813C25.9649 74.0442 26.1602 74.454 26.1602 74.8721C26.1602 75.0867 26.1088 75.3034 26.0019 75.5037C25.9115 75.3722 25.7984 75.2531 25.6607 75.1525C25.0122 74.68 24.1026 74.8238 23.6298 75.4719C23.6226 75.4832 23.6164 75.4945 23.6092 75.5058Z" fill="#0A9ECC"/>
<path id="Fill 21" fill-rule="evenodd" clip-rule="evenodd" d="M23.711 74.076C23.9247 73.7843 24.2382 73.5933 24.5948 73.5357C24.9525 73.4803 25.3102 73.5676 25.6031 73.7792C25.9649 74.0421 26.1601 74.4529 26.1601 74.871C26.1601 75.0846 26.1088 75.3023 26.0019 75.5016C25.9114 75.3711 25.7984 75.251 25.6617 75.1503C25.0121 74.6789 24.1025 74.8217 23.6298 75.4697C23.6226 75.481 23.6164 75.4934 23.6092 75.5036C23.3687 75.0476 23.4057 74.494 23.711 74.076ZM25.0471 76.4064C25.4571 76.3417 25.8169 76.1219 26.0605 75.7871C26.0913 75.745 26.1211 75.6978 26.1509 75.6485C26.5486 74.9593 26.3636 74.0873 25.7203 73.6189C25.3852 73.3745 24.9741 73.2749 24.564 73.3396C24.1539 73.4043 23.7932 73.6241 23.5496 73.9599C23.3523 74.229 23.2526 74.5505 23.2526 74.873C23.2526 75.14 23.3214 75.4071 23.4612 75.6485C23.5681 75.8364 23.714 75.9977 23.8908 76.1271C24.1601 76.3222 24.4777 76.4249 24.8045 76.4249C24.8847 76.4249 24.9659 76.4198 25.0471 76.4064Z" fill="white"/>
<path id="Fill 23" fill-rule="evenodd" clip-rule="evenodd" d="M23.4538 24.6562C23.2133 25.1123 23.2503 25.6659 23.5556 26.0839C23.7683 26.3766 24.0828 26.5676 24.4395 26.6241C24.7971 26.6796 25.1548 26.5933 25.4477 26.3807C25.8095 26.1178 26.0048 25.708 26.0048 25.29C26.0048 25.0753 25.9534 24.8586 25.8465 24.6583C25.7561 24.7898 25.643 24.9089 25.5053 25.0096C24.8568 25.482 23.9472 25.3382 23.4744 24.6901C23.4672 24.6788 23.461 24.6675 23.4538 24.6562Z" fill="#0A9ECC"/>
<path id="Fill 25" fill-rule="evenodd" clip-rule="evenodd" d="M23.4538 24.6557C23.461 24.667 23.4672 24.6783 23.4744 24.6896C23.9471 25.3377 24.8567 25.4814 25.5053 25.009C25.643 24.9083 25.756 24.7892 25.8465 24.6577C25.9534 24.858 26.0048 25.0747 26.0048 25.2894C26.0048 25.7074 25.8095 26.1172 25.4477 26.3801C25.1548 26.5927 24.7971 26.679 24.4394 26.6236C24.0828 26.5671 23.7683 26.376 23.5556 26.0833C23.2503 25.6653 23.2133 25.1117 23.4538 24.6557ZM24.6491 23.7344C24.3223 23.7344 24.0047 23.8371 23.7354 24.0322C23.5586 24.1616 23.4127 24.3229 23.3058 24.5108C23.166 24.7522 23.0972 25.0203 23.0972 25.2873C23.0972 25.6098 23.1969 25.9303 23.3942 26.2004C23.6378 26.5363 23.9985 26.7561 24.4086 26.8197C24.8187 26.8844 25.2298 26.7848 25.5649 26.5414C26.2083 26.073 26.3933 25.2 25.9955 24.5108C25.9657 24.4615 25.9359 24.4143 25.9051 24.3732C25.6615 24.0384 25.3018 23.8186 24.8917 23.7539C24.8105 23.7405 24.7293 23.7344 24.6491 23.7344Z" fill="white"/>
<path id="Fill 27" fill-rule="evenodd" clip-rule="evenodd" d="M76.1147 74.7168C76.3552 75.1728 76.3182 75.7264 76.0129 76.1444C75.8002 76.4372 75.4857 76.6282 75.129 76.6847C74.7714 76.7401 74.4137 76.6539 74.1208 76.4413C73.759 76.1783 73.5637 75.7685 73.5637 75.3505C73.5637 75.1358 73.6151 74.9191 73.722 74.7189C73.8124 74.8503 73.9255 74.9695 74.0632 75.0701C74.7117 75.5426 75.6213 75.3988 76.0941 74.7507C76.1013 74.7394 76.1075 74.7281 76.1147 74.7168Z" fill="#0A9ECC"/>
<path id="Fill 29" fill-rule="evenodd" clip-rule="evenodd" d="M76.013 76.1439C75.7993 76.4355 75.4858 76.6266 75.1292 76.6841C74.7715 76.7396 74.4138 76.6523 74.1209 76.4407C73.7591 76.1778 73.5639 75.7669 73.5639 75.3489C73.5639 75.1353 73.6152 74.9175 73.7221 74.7183C73.8126 74.8487 73.9256 74.9689 74.0623 75.0695C74.7119 75.541 75.6215 75.3982 76.0942 74.7501C76.1014 74.7388 76.1076 74.7265 76.1148 74.7162C76.3553 75.1722 76.3183 75.7258 76.013 76.1439ZM74.6769 73.8134C74.2669 73.8781 73.9071 74.0979 73.6635 74.4327C73.6327 74.4749 73.6019 74.5211 73.5731 74.5714C73.1754 75.2606 73.3604 76.1326 74.0037 76.6009C74.3388 76.8454 74.7499 76.945 75.16 76.8803C75.5701 76.8156 75.9308 76.5958 76.1744 76.2599C76.3717 75.9908 76.4714 75.6693 76.4714 75.3468C76.4714 75.0798 76.4026 74.8128 76.2628 74.5714C76.1559 74.3834 76.01 74.2222 75.8322 74.0928C75.5639 73.8976 75.2463 73.7949 74.9195 73.7949C74.8393 73.7949 74.7581 73.8001 74.6769 73.8134Z" fill="white"/>
<path id="Fill 31" fill-rule="evenodd" clip-rule="evenodd" d="M73.7209 25.5253C73.4804 25.0693 73.5174 24.5157 73.8227 24.0977C74.0354 23.8049 74.3499 23.6139 74.7066 23.5574C75.0642 23.5019 75.4219 23.5882 75.7148 23.8008C76.0766 24.0638 76.2719 24.4736 76.2719 24.8916C76.2719 25.1062 76.2205 25.323 76.1136 25.5232C76.0232 25.3918 75.9101 25.2726 75.7724 25.172C75.1238 24.6995 74.2143 24.8433 73.7415 25.4914C73.7343 25.5027 73.7281 25.514 73.7209 25.5253Z" fill="#0A9ECC"/>
<path id="Fill 33" fill-rule="evenodd" clip-rule="evenodd" d="M73.8225 24.0975C74.0363 23.8058 74.3498 23.6147 74.7064 23.5572C75.0641 23.5018 75.4217 23.5891 75.7147 23.8006C76.0764 24.0636 76.2717 24.4744 76.2717 24.8924C76.2717 25.1061 76.2203 25.3238 76.1134 25.5231C76.023 25.3926 75.9099 25.2725 75.7732 25.1718C75.1237 24.7004 74.2141 24.8431 73.7413 25.4912C73.7341 25.5025 73.728 25.5148 73.7208 25.5251C73.4803 25.0691 73.5173 24.5155 73.8225 24.0975ZM75.1586 26.4279C75.5687 26.3632 75.9284 26.1434 76.172 25.8086C76.2029 25.7665 76.2337 25.7203 76.2625 25.6699C76.6602 24.9808 76.4752 24.1088 75.8318 23.6404C75.4968 23.396 75.0857 23.2964 74.6756 23.3611C74.2655 23.4258 73.9047 23.6456 73.6612 23.9814C73.4638 24.2505 73.3641 24.572 73.3641 24.8945C73.3641 25.1615 73.433 25.4286 73.5728 25.6699C73.6797 25.8579 73.8256 26.0191 74.0034 26.1486C74.2717 26.3437 74.5892 26.4464 74.9161 26.4464C74.9962 26.4464 75.0774 26.4413 75.1586 26.4279Z" fill="white"/>
</g>
<g id="Group">
<path id="Fill 1_2" fill-rule="evenodd" clip-rule="evenodd" d="M80 50.0001C80 66.5685 66.5685 80 50.0001 80C33.4315 80 20 66.5685 20 50.0001C20 33.4314 33.4315 20 50.0001 20C66.5685 20 80 33.4314 80 50.0001Z" fill="url(#paint1_radial_26396_31662)"/>
<path id="Fill 1_3" d="M79.662 49.831C79.662 66.3061 66.3062 79.662 49.8311 79.662V79.662C33.3558 79.662 20 66.3061 20 49.831V49.831C20 33.3558 33.3558 20 49.8311 20V20C66.3062 20 79.662 33.3558 79.662 49.831" stroke="white" stroke-width="2"/>
</g>
</g>
<defs>
<linearGradient id="paint0_linear_26396_31662" x1="-10.1931" y1="-12.0846" x2="-10.1931" y2="108.302" gradientUnits="userSpaceOnUse">
<stop stop-color="#2DD4AF"/>
<stop offset="0.102058" stop-color="#2BD1BC"/>
<stop offset="0.600402" stop-color="#26C9E3"/>
<stop offset="0.895855" stop-color="#79C5EB"/>
<stop offset="1" stop-color="#E2D8EF"/>
</linearGradient>
<radialGradient id="paint1_radial_26396_31662" cx="0" cy="0" r="1" gradientUnits="userSpaceOnUse" gradientTransform="translate(50 50) rotate(180) scale(30)">
<stop stop-color="#11BCCF"/>
<stop offset="1" stop-color="#089ACB"/>
</radialGradient>
</defs>
</svg>
